<svg width="40" height="40" viewBox="0 0 40 40" fill="none" xmlns="http://www.w3.org/2000/svg">
  <!-- Face -->
  <circle cx="20" cy="20" r="18" fill="#F4C2A1" stroke="#E8B497" stroke-width="1"/>
  
  <!-- Hair -->
  <path d="M4 20 C4 10, 10 4, 20 4 C30 4, 36 10, 36 20 C36 12, 32 8, 28 8 C24 8, 22 10, 20 10 C18 10, 16 8, 12 8 C8 8, 4 12, 4 20 Z" fill="#2D1810"/>
  
  <!-- Glasses -->
  <ellipse cx="14" cy="17" rx="5" ry="4" fill="none" stroke="#CC0000" stroke-width="2"/>
  <ellipse cx="26" cy="17" rx="5" ry="4" fill="none" stroke="#CC0000" stroke-width="2"/>
  <line x1="19" y1="17" x2="21" y1="17" stroke="#CC0000" stroke-width="2"/>
  
  <!-- Eyes -->
  <circle cx="14" cy="17" r="2" fill="white"/>
  <circle cx="26" cy="17" r="2" fill="white"/>
  <circle cx="14" cy="17" r="1" fill="black"/>
  <circle cx="26" cy="17" r="1" fill="black"/>
  
  <!-- Nose -->
  <ellipse cx="20" cy="22" rx="1" ry="2" fill="#E8B497"/>
  
  <!-- Mouth -->
  <path d="M16 26 Q20 28 24 26" stroke="#CC6666" stroke-width="1.5" fill="none" stroke-linecap="round"/>
</svg>